<svg xmlns="http://www.w3.org/2000/svg" version="1.1" width="395.99999999999994" height="222.9784615384615" viewBox="0 0 325 183" class="looka-1j8o68f"><defs id="SvgjsDefs6368"><linearGradient id="SvgjsLinearGradient6375"><stop id="SvgjsStop6376" stop-color="#ef4136" offset="0"></stop><stop id="SvgjsStop6377" stop-color="#fbb040" offset="1"></stop></linearGradient></defs><g id="SvgjsG6369" featurekey="rootContainer" transform="matrix(1,0,0,1,0,0)" fill="#fae3d9"><rect xmlns="http://www.w3.org/2000/svg" width="325" height="183" rx="10" ry="10"></rect></g><g id="SvgjsG6370" featurekey="symbolFeature-0" transform="matrix(2.1478402040448192,0,0,2.1478402040448192,-24.889859445200706,-13.579333373142134)" fill="url(#SvgjsLinearGradient6375)"><g xmlns="http://www.w3.org/2000/svg"><polygon fill="url(#SvgjsLinearGradient6375)" points="47.881,82.365 20.992,66.74 20.9,34.418 47.789,50.043  "></polygon></g><g xmlns="http://www.w3.org/2000/svg"><polygon fill="url(#SvgjsLinearGradient6375)" points="49.334,47.5 22.444,31.874 50.573,15.634 77.463,31.26  "></polygon></g><g xmlns="http://www.w3.org/2000/svg"><polygon fill="url(#SvgjsLinearGradient6375)" points="79.006,33.803 79.098,66.125 50.967,82.365 50.876,50.043  "></polygon></g></g><g id="SvgjsG6371" featurekey="nameFeature-0" transform="matrix(3.1030612622792333,0,0,3.1030612622792333,165,10.788090502796884)" fill="#111111"><path d="M0.42969 12.148 l6.2109 -0.000019073 c0.6901 2.5 2.0963 7.5 4.2188 15 l2.4609 0 c0.065098 0 0.33203 -0.89193 0.80078 -2.6758 c1.0287 -3.5416 2.1875 -7.6498 3.4766 -12.324 l5.7422 0 l0 18.066 l0.3125 0 l0 3.3008 l-1.7383 0 l0 0.60547 l1.7383 0 l0 5.8789 l-4.8828 0 l0 -2.168 l0.60547 0 l0 -6.6797 l-1.0352 0 l0 -3.3398 l-0.60547 0 l-0.039063 0.19531 l-0.52734 0 l0 4.7461 l-1.6992 0 l0 2.207 l-1.4453 0 l0 3.7695 l-3.4375 0 l0 -2.4023 l-2.1094 0 l0 -3.2813 l-1.2695 0 l0 -3.4375 l-0.72266 0 c-0.026035 -0.18229 -0.18229 -0.78125 -0.46875 -1.7969 l4.9414 0 l-0.13672 -0.66406 l-4.9414 0 l0.13672 0.66406 l-0.64453 0 l0 4.3359 l0.3125 0 l0 4.7461 l-1.2109 0 l0 0.83984 l1.2109 0 l0 1.2695 l-4.4141 0 l0 -5.7227 l-0.83984 0 l0 -21.133 z M5.3125 25.176000000000002 l0 0.33203 c0 0.28646 0.019531 0.83334 0.058594 1.6406 l0.46875 0 c-0.3125 -1.25 -0.46875 -1.9076 -0.46875 -1.9727 l-0.058594 0 z M18.34 25.234 l-0.41016 1.9141 l0.41016 0 c0.039063 -0.79428 0.058594 -1.3737 0.058594 -1.7383 l0 -0.17578 l-0.058594 0 z M3.7695 27.148 l0 0.66406 l1.543 0 l0 -0.66406 l-1.543 0 z M13.398 27.148 l-0.13672 0.66404 l4.4336 0 c0.11719 -0.33854 0.17578 -0.55988 0.17578 -0.66404 l-4.4727 0 z M18.398 27.148 l0 0.66406 l3.3789 0 l0 -0.66406 l-3.3789 0 z M11.055 27.811999999999998 c0.20834 1.0026 0.35156 1.5039 0.42969 1.5039 l0.56641 0 l0 2.5 l0.87891 0 l0 -3.8672 l0.23438 0 l0 -0.13672 l-2.1094 0 z M23.652 33.5156 l2.832 0 l0 0.60547 l-2.832 0 l0 -0.60547 z M0 39.23826 l4.9805 0 l0 0.42969 l-4.9805 0 l0 -0.42969 z M34.9609375 11.992 c4.9609 0 7.4414 2.3242 7.4414 6.9727 l0 0.41016 c0 1.9922 -0.48828 3.6328 -1.4648 4.9219 l0 2.2461 l1.1914 0 l0 9.0039 l-1.3281 0 l0 0.68359 l1.3281 0 l0 2.5781 l-2.8516 0 l0 1.1914 l-11.387 0 l0 -8.0273 l1.1523 0 l0 -0.60547 l-1.6406 0 l-0.46875 0.039063 l0 -4.3945 l0.64453 0 c0.5599 -0.92447 1.3086 -1.556 2.2461 -1.8945 l0 -0.039063 c-1.5104 -0.79428 -2.3047 -2.5846 -2.3828 -5.3711 c0 -3.3984 0.90494 -5.6186 2.7148 -6.6602 c1.1458 -0.70313 2.7475 -1.0547 4.8047 -1.0547 z M32.6367375 18.926 c0 2.2525 0.33203 3.6002 0.99609 4.043 c0.3776 0.2474 0.83984 0.42969 1.3867 0.54688 c0.48178 -0.078125 0.95703 -0.27994 1.4258 -0.60547 c0.61197 -0.48178 0.91797 -1.5951 0.91797 -3.3398 l0 -0.97656 c0 -1.4974 -0.6901 -2.2461 -2.0703 -2.2461 l-0.37109 0 c-1.5234 0 -2.2852 0.85938 -2.2852 2.5781 z M42.128437500000004 25.586 l2.9883 0 l0 0.95703 l-2.9883 0 l0 -0.95703 z M32.4414375 27.227 l0 2.168 l-0.68359 0 l0 5.7422 l2.793 0 l0 -0.64453 l2.8125 0 l0 -7.2656 l-4.9219 0 z"></path></g></svg>
